<svg xmlns="http://www.w3.org/2000/svg" width="5446" height="995" viewBox="0 0 5446 995"><g id="Group_57" data-name="Group 57" transform="translate(-94 -144)"><rect id="Rectangle_132" width="5446" height="995" fill="none" data-name="Rectangle 132" transform="translate(94 144)"/><g id="Rectangle_126" fill="#d9e3ed" stroke="#a9b7c6" stroke-width="10" data-name="Rectangle 126" transform="translate(254 499)"><rect width="896" height="284" stroke="none" rx="68"/><rect width="886" height="274" x="5" y="5" fill="none" rx="63"/></g><g id="Rectangle_127" fill="#d9e3ed" stroke="#a9b7c6" stroke-width="10" data-name="Rectangle 127" transform="translate(1363 499)"><rect width="1245" height="284" stroke="none" rx="68"/><rect width="1235" height="274" x="5" y="5" fill="none" rx="63"/></g><g id="Rectangle_128" fill="#d9e3ed" stroke="#a9b7c6" stroke-width="10" data-name="Rectangle 128" transform="translate(2857 499)"><rect width="907" height="284" stroke="none" rx="68"/><rect width="897" height="274" x="5" y="5" fill="none" rx="63"/></g><g id="Rectangle_129" fill="#d9e3ed" stroke="#a9b7c6" stroke-width="10" data-name="Rectangle 129" transform="translate(4043.26 499)"><rect width="805" height="284" stroke="none" rx="68"/><rect width="795" height="274" x="5" y="5" fill="none" rx="63"/></g><text id="JWT" fill="#4b4b4b" font-family="HelveticaNeue-Medium, Helvetica Neue" font-size="110" font-weight="500" transform="translate(588 683)"><tspan x="0" y="0">JWT</tspan></text><text id="VC_VP_Check_" fill="#4b4b4b" data-name="VC/VP Check" font-family="HelveticaNeue-Medium, Helvetica Neue" font-size="110" font-weight="500" transform="translate(1613 683)"><tspan x="0" y="0">VC/VP Check</tspan></text><text id="Format" fill="#4b4b4b" font-family="HelveticaNeue-Medium, Helvetica Neue" font-size="110" font-weight="500" transform="translate(3109 683)"><tspan x="0" y="0">Format</tspan></text><text id="Return" fill="#4b4b4b" font-family="HelveticaNeue-Medium, Helvetica Neue" font-size="110" font-weight="500" transform="translate(4287.15 682.5)"><tspan x="0" y="0">Return</tspan></text><path id="Path_119" fill="none" stroke="#a8a8a8" stroke-dasharray="26" stroke-width="7" d="M-8664,1346.813v213.26" data-name="Path 119" transform="translate(-196.813 -8011.705) rotate(-90)"/><path id="Path_123" fill="none" stroke="#a8a8a8" stroke-dasharray="26" stroke-width="7" d="M-8664,1346.813v213.26" data-name="Path 123" transform="translate(1261.188 -8011.705) rotate(-90)"/><path id="Path_124" fill="none" stroke="#a8a8a8" stroke-dasharray="26" stroke-width="7" d="M-8664,1346.813v213.26" data-name="Path 124" transform="translate(2447.447 -8013.76) rotate(-90)"/><g id="Polygon_2" fill="#a8a8a8" data-name="Polygon 2"><path stroke="none" d="M 77.13683319091797 67.5 L 0.8631658554077148 67.5 L 39 1.005007147789001 L 77.13683319091797 67.5 Z" transform="translate(1257.34 631.055) rotate(-30)"/><path fill="#707070" stroke="none" d="M 39 2.009994506835938 L 1.726325988769531 67 L 76.273681640625 67 L 39 2.009994506835938 M 39 0 L 78 68 L 0 68 L 39 0 Z" transform="translate(1257.34 631.055) rotate(-30)"/></g><g id="Polygon_5" fill="#a8a8a8" data-name="Polygon 5"><path stroke="none" d="M 77.13683319091797 67.5 L 0.8631658554077148 67.5 L 39 1.005007147789001 L 77.13683319091797 67.5 Z" transform="translate(2715.34 631.055) rotate(-30)"/><path fill="#707070" stroke="none" d="M 39 2.009994506835938 L 1.726325988769531 67 L 76.273681640625 67 L 39 2.009994506835938 M 39 0 L 78 68 L 0 68 L 39 0 Z" transform="translate(2715.34 631.055) rotate(-30)"/></g><g id="Polygon_6" fill="#a8a8a8" data-name="Polygon 6"><path stroke="none" d="M 77.13683319091797 67.5 L 0.8631658554077148 67.5 L 39 1.005007147789001 L 77.13683319091797 67.5 Z" transform="translate(3901.6 629) rotate(-30)"/><path fill="#707070" stroke="none" d="M 39 2.009994506835938 L 1.726325988769531 67 L 76.273681640625 67 L 39 2.009994506835938 M 39 0 L 78 68 L 0 68 L 39 0 Z" transform="translate(3901.6 629) rotate(-30)"/></g></g></svg>