<svg xmlns="http://www.w3.org/2000/svg" width="6962" height="3618" viewBox="0 0 6962 3618"><g id="Group_47" data-name="Group 47" transform="translate(-251 -678)"><rect id="Rectangle_100" width="6962" height="3618" fill="none" data-name="Rectangle 100" transform="translate(251 678)"/><path id="Path_113" fill="none" stroke="#a8a8a8" stroke-dasharray="26" stroke-width="7" d="M-8664,1346.813s-1555.239,83.922-2304.723,780.589" data-name="Path 113" transform="translate(12379 1409.147)"/><path id="Path_116" fill="none" stroke="#a8a8a8" stroke-dasharray="26" stroke-width="7" d="M-10968.723,1346.813S-9413.483,1430.735-8664,2127.4" data-name="Path 116" transform="translate(14683.723 1409.147)"/><path id="Path_114" fill="none" stroke="#a8a8a8" stroke-dasharray="26" stroke-width="7" d="M-8825.924,1346.813s-897.8,200.557-964.006,788.152" data-name="Path 114" transform="translate(12540.924 1409.147)"/><path id="Path_115" fill="none" stroke="#a8a8a8" stroke-dasharray="26" stroke-width="7" d="M-9789.93,1346.813s961.211,200.641,1029.1,788.258" data-name="Path 115" transform="translate(13504.93 1409.147)"/><g id="Rectangle_93" fill="#e8e8e8" stroke="#ccc" stroke-width="10" data-name="Rectangle 93" transform="translate(3110 985)"><rect width="1245" height="284" stroke="none" rx="68"/><rect width="1235" height="274" x="5" y="5" fill="none" rx="63"/></g><text id="Veramo_DID_Agent" fill="#4b4b4b" data-name="Veramo DID Agent" font-family="HelveticaNeue-Medium, Helvetica Neue" font-size="110" font-weight="500" transform="translate(3251 1169)"><tspan x="0" y="0">Veramo DID Agent</tspan></text><g id="Rectangle_94" fill="#fcf7d7" stroke="#e3ddb8" stroke-width="8" data-name="Rectangle 94" transform="translate(3104 1773)"><rect width="1256" height="277" stroke="none" rx="68"/><rect width="1248" height="269" x="4" y="4" fill="none" rx="64"/></g><text id="IMessageHandler" fill="#4b4b4b" font-family="HelveticaNeue-Medium, Helvetica Neue" font-size="110" font-weight="500" transform="translate(3290 1955)"><tspan x="0" y="0">IMessageHandler</tspan></text><g id="Group_45" data-name="Group 45" transform="translate(3169 1697)"><rect id="Rectangle_90" width="395" height="85" fill="#e3ddb8" data-name="Rectangle 90"/><text id="INTERFACE" fill="#fff" font-family="HelveticaNeue-Medium, Helvetica Neue" font-size="60" font-weight="500" transform="translate(28 62)"><tspan x="0" y="0">INTERFACE</tspan></text></g><g id="Rectangle_95" fill="#e2edd9" stroke="#c6d5b9" stroke-width="8" data-name="Rectangle 95" transform="translate(3110 2475)"><rect width="1245" height="281" stroke="none" rx="68"/><rect width="1237" height="273" x="4" y="4" fill="none" rx="64"/></g><g id="Group_46" data-name="Group 46" transform="translate(2321 776)"><rect id="Rectangle_90-2" width="279" height="85" fill="#c6d5b9" data-name="Rectangle 90" transform="translate(870 1617)"/><text id="PLUGIN" fill="#fff" font-family="HelveticaNeue-Medium, Helvetica Neue" font-size="60" font-weight="500" transform="translate(898 1679)"><tspan x="0" y="0">PLUGIN</tspan></text></g><text id="MessageHandler" fill="#4b4b4b" font-family="HelveticaNeue-Medium, Helvetica Neue" font-size="110" font-weight="500" transform="translate(3256 2647)"><tspan x="0" y="0">MessageHandler</tspan></text><g id="Rectangle_96" fill="#d9e3ed" stroke="#a9b7c6" stroke-width="8" data-name="Rectangle 96" transform="translate(448 3505)"><rect width="1401" height="276" stroke="none" rx="68"/><rect width="1393" height="268" x="4" y="4" fill="none" rx="64"/></g><g id="Rectangle_97" fill="#d9e3ed" stroke="#a9b7c6" stroke-width="8" data-name="Rectangle 97" transform="translate(1967 3509)"><rect width="1401" height="272" stroke="none" rx="68"/><rect width="1393" height="264" x="4" y="4" fill="none" rx="64"/></g><g id="Rectangle_98" fill="#d9e3ed" stroke="#a9b7c6" stroke-width="8" data-name="Rectangle 98" transform="translate(3504 3515)"><rect width="1712" height="266" stroke="none" rx="68"/><rect width="1704" height="258" x="4" y="4" fill="none" rx="64"/></g><g id="Rectangle_99" fill="#d9e3ed" stroke="#a9b7c6" stroke-width="8" data-name="Rectangle 99" transform="translate(5369 3515)"><rect width="1388" height="266" stroke="none" rx="68"/><rect width="1380" height="258" x="4" y="4" fill="none" rx="64"/></g><rect id="Rectangle_90-3" width="1010" height="85" fill="#a9b7c6" data-name="Rectangle 90" transform="translate(529 3428)"/><rect id="Rectangle_101" width="1010" height="85" fill="#a9b7c6" data-name="Rectangle 101" transform="translate(2045 3430)"/><rect id="Rectangle_102" width="1010" height="85" fill="#a9b7c6" data-name="Rectangle 102" transform="translate(3591 3431)"/><rect id="Rectangle_103" width="1010" height="85" fill="#a9b7c6" data-name="Rectangle 103" transform="translate(5448 3431)"/><text id="ABSTRACT_MESSAGE_HANDLER" fill="#fff" data-name="ABSTRACT MESSAGE HANDLER" font-family="HelveticaNeue-Medium, Helvetica Neue" font-size="60" font-weight="500" transform="translate(557 3490)"><tspan x="0" y="0">ABSTRACT MESSAGE HANDLER</tspan></text><text id="ABSTRACT_MESSAGE_HANDLER-2" fill="#fff" data-name="ABSTRACT MESSAGE HANDLER" font-family="HelveticaNeue-Medium, Helvetica Neue" font-size="60" font-weight="500" transform="translate(2073 3492)"><tspan x="0" y="0">ABSTRACT MESSAGE HANDLER</tspan></text><text id="ABSTRACT_MESSAGE_HANDLER-3" fill="#fff" data-name="ABSTRACT MESSAGE HANDLER" font-family="HelveticaNeue-Medium, Helvetica Neue" font-size="60" font-weight="500" transform="translate(3619 3496)"><tspan x="0" y="0">ABSTRACT MESSAGE HANDLER</tspan></text><text id="ABSTRACT_MESSAGE_HANDLER-4" fill="#fff" data-name="ABSTRACT MESSAGE HANDLER" font-family="HelveticaNeue-Medium, Helvetica Neue" font-size="60" font-weight="500" transform="translate(5476 3496)"><tspan x="0" y="0">ABSTRACT MESSAGE HANDLER</tspan></text><text id="W3CMessageHandler" fill="#4b4b4b" font-family="HelveticaNeue-Medium, Helvetica Neue" font-size="110" font-weight="500" transform="translate(594 3685)"><tspan x="0" y="0">W3CMessageHandler</tspan></text><text id="JWTMessageHandler" fill="#4b4b4b" font-family="HelveticaNeue-Medium, Helvetica Neue" font-size="110" font-weight="500" transform="translate(2113 3688)"><tspan x="0" y="0">JWTMessageHandler</tspan></text><text id="DIDComm_MessageHandler" fill="#4b4b4b" data-name="DIDComm MessageHandler" font-family="HelveticaNeue-Medium, Helvetica Neue" font-size="110" font-weight="500" transform="translate(3653 3690)"><tspan x="0" y="0">DIDComm MessageHandler</tspan></text><text id="SDR_Message_Handler" fill="#4b4b4b" data-name="SDR Message Handler" font-family="HelveticaNeue-Medium, Helvetica Neue" font-size="110" font-weight="500" transform="translate(5515 3694)"><tspan x="0" y="0">SDR Message Handler</tspan></text><path id="Path_117" fill="none" stroke="#a8a8a8" stroke-dasharray="26" stroke-width="7" d="M-8664,1346.813v405" data-name="Path 117" transform="translate(12366 723.188)"/><path id="Path_118" fill="none" stroke="#a8a8a8" stroke-dasharray="26" stroke-width="7" d="M-8664,1346.813v490.519" data-name="Path 118" transform="translate(12366 -77.831)"/></g></svg>