<svg xmlns="http://www.w3.org/2000/svg" width="7313" height="1091" viewBox="0 0 7313 1091"><g id="Group_47" data-name="Group 47" transform="translate(-84 -85)"><rect id="Rectangle_104" width="7313" height="1091" fill="none" data-name="Rectangle 104" transform="translate(84 85)"/><g id="Rectangle_96" fill="#d9e3ed" stroke="#a9b7c6" stroke-width="8" data-name="Rectangle 96" transform="translate(3862 542)"><rect width="1401" height="276" stroke="none" rx="68"/><rect width="1393" height="268" x="4" y="4" fill="none" rx="64"/></g><g id="Rectangle_97" fill="#d9e3ed" stroke="#a9b7c6" stroke-width="8" data-name="Rectangle 97" transform="translate(2228 546)"><rect width="1401" height="272" stroke="none" rx="68"/><rect width="1393" height="264" x="4" y="4" fill="none" rx="64"/></g><g id="Rectangle_98" fill="#d9e3ed" stroke="#a9b7c6" stroke-width="8" data-name="Rectangle 98" transform="translate(306 550)"><rect width="1712" height="266" stroke="none" rx="68"/><rect width="1704" height="258" x="4" y="4" fill="none" rx="64"/></g><g id="Rectangle_99" fill="#d9e3ed" stroke="#a9b7c6" stroke-width="8" data-name="Rectangle 99" transform="translate(5531 552)"><rect width="1388" height="266" stroke="none" rx="68"/><rect width="1380" height="258" x="4" y="4" fill="none" rx="64"/></g><rect id="Rectangle_90" width="1010" height="85" fill="#a9b7c6" data-name="Rectangle 90" transform="translate(3943 465)"/><rect id="Rectangle_101" width="1010" height="85" fill="#a9b7c6" data-name="Rectangle 101" transform="translate(2306 467)"/><rect id="Rectangle_102" width="1010" height="85" fill="#a9b7c6" data-name="Rectangle 102" transform="translate(393 466)"/><rect id="Rectangle_103" width="1010" height="85" fill="#a9b7c6" data-name="Rectangle 103" transform="translate(5610 468)"/><text id="ABSTRACT_MESSAGE_HANDLER" fill="#fff" data-name="ABSTRACT MESSAGE HANDLER" font-family="HelveticaNeue-Medium, Helvetica Neue" font-size="60" font-weight="500" transform="translate(3971 527)"><tspan x="0" y="0">ABSTRACT MESSAGE HANDLER</tspan></text><text id="ABSTRACT_MESSAGE_HANDLER-2" fill="#fff" data-name="ABSTRACT MESSAGE HANDLER" font-family="HelveticaNeue-Medium, Helvetica Neue" font-size="60" font-weight="500" transform="translate(2334 529)"><tspan x="0" y="0">ABSTRACT MESSAGE HANDLER</tspan></text><text id="ABSTRACT_MESSAGE_HANDLER-3" fill="#fff" data-name="ABSTRACT MESSAGE HANDLER" font-family="HelveticaNeue-Medium, Helvetica Neue" font-size="60" font-weight="500" transform="translate(421 531)"><tspan x="0" y="0">ABSTRACT MESSAGE HANDLER</tspan></text><text id="ABSTRACT_MESSAGE_HANDLER-4" fill="#fff" data-name="ABSTRACT MESSAGE HANDLER" font-family="HelveticaNeue-Medium, Helvetica Neue" font-size="60" font-weight="500" transform="translate(5638 533)"><tspan x="0" y="0">ABSTRACT MESSAGE HANDLER</tspan></text><text id="W3CMessageHandler" fill="#4b4b4b" font-family="HelveticaNeue-Medium, Helvetica Neue" font-size="110" font-weight="500" transform="translate(4008 722)"><tspan x="0" y="0">W3CMessageHandler</tspan></text><text id="JWTMessageHandler" fill="#4b4b4b" font-family="HelveticaNeue-Medium, Helvetica Neue" font-size="110" font-weight="500" transform="translate(2374 725)"><tspan x="0" y="0">JWTMessageHandler</tspan></text><text id="DIDComm_MessageHandler" fill="#4b4b4b" data-name="DIDComm MessageHandler" font-family="HelveticaNeue-Medium, Helvetica Neue" font-size="110" font-weight="500" transform="translate(455 725)"><tspan x="0" y="0">DIDComm MessageHandler</tspan></text><text id="SDR_Message_Handler" fill="#4b4b4b" data-name="SDR Message Handler" font-family="HelveticaNeue-Medium, Helvetica Neue" font-size="110" font-weight="500" transform="translate(5677 731)"><tspan x="0" y="0">SDR Message Handler</tspan></text><path id="Path_119" fill="none" stroke="#a8a8a8" stroke-dasharray="26" stroke-width="7" d="M-8664,1346.813v213.26" data-name="Path 119" transform="translate(667.928 -7973.76) rotate(-90)"/><path id="Path_120" fill="none" stroke="#a8a8a8" stroke-dasharray="26" stroke-width="7" d="M-8664,1346.813v213.26" data-name="Path 120" transform="translate(2292.559 -7973.76) rotate(-90)"/><path id="Path_121" fill="none" stroke="#a8a8a8" stroke-dasharray="26" stroke-width="7" d="M-8664,1346.813v274.262" data-name="Path 121" transform="translate(3909.926 -7973.76) rotate(-90)"/><g id="Polygon_2" fill="#a8a8a8" data-name="Polygon 2"><path stroke="none" d="M 77.13683319091797 67.5 L 0.863165557384491 67.5 L 38.99996948242188 1.005007147789001 L 77.13683319091797 67.5 Z" transform="translate(2122.08 669) rotate(-30)"/><path fill="#707070" stroke="none" d="M 38.99996566772461 2.009994506835938 L 1.726318359375 67 L 76.27367401123047 67 L 38.99996566772461 2.009994506835938 M 38.99996566772461 0 L 78 68 L 0 68 L 38.99996566772461 0 Z" transform="translate(2122.08 669) rotate(-30)"/></g><g id="Polygon_3" fill="#a8a8a8" data-name="Polygon 3"><path stroke="none" d="M 77.13683319091797 67.5 L 0.863165557384491 67.5 L 38.99996948242188 1.005007147789001 L 77.13683319091797 67.5 Z" transform="translate(3761.711 669) rotate(-30)"/><path fill="#707070" stroke="none" d="M 38.99996566772461 2.009994506835938 L 1.726318359375 67 L 76.27367401123047 67 L 38.99996566772461 2.009994506835938 M 38.99996566772461 0 L 78 68 L 0 68 L 38.99996566772461 0 Z" transform="translate(3761.711 669) rotate(-30)"/></g><g id="Polygon_4" fill="#a8a8a8" data-name="Polygon 4"><path stroke="none" d="M 77.13683319091797 67.5 L 0.863165557384491 67.5 L 38.99996948242188 1.005007147789001 L 77.13683319091797 67.5 Z" transform="translate(5429.449 669) rotate(-30)"/><path fill="#707070" stroke="none" d="M 38.99996566772461 2.009994506835938 L 1.726318359375 67 L 76.27367401123047 67 L 38.99996566772461 2.009994506835938 M 38.99996566772461 0 L 78 68 L 0 68 L 38.99996566772461 0 Z" transform="translate(5429.449 669) rotate(-30)"/></g></g></svg>