<svg xmlns="http://www.w3.org/2000/svg" width="7228" height="5044" viewBox="0 0 7228 5044"><g id="Group_43" data-name="Group 43" transform="translate(-149 -132)"><rect id="Rectangle_91" width="7228" height="5044" fill="none" data-name="Rectangle 91" transform="translate(149 132)"/><g id="Rectangle_65" fill="#e8e8e8" stroke="#4b4b4b" stroke-width="10" data-name="Rectangle 65" transform="translate(3011 289)"><rect width="1245" height="284" stroke="none" rx="68"/><rect width="1235" height="274" x="5" y="5" fill="none" rx="63"/></g><text id="Veramo_DID_Agent" fill="#4b4b4b" data-name="Veramo DID Agent" font-family="HelveticaNeue-Medium, Helvetica Neue" font-size="110" font-weight="500" transform="translate(3152 473)"><tspan x="0" y="0">Veramo DID Agent</tspan></text><g id="Rectangle_66" fill="#fcf7d7" stroke="#e3ddb8" stroke-width="8" data-name="Rectangle 66" transform="translate(805 1693)"><rect width="1021" height="238" stroke="none" rx="68"/><rect width="1013" height="230" x="4" y="4" fill="none" rx="64"/></g><g id="Rectangle_75" fill="#e2edd9" stroke="#c6d5b9" stroke-width="8" data-name="Rectangle 75" transform="translate(275 2812)"><rect width="1021" height="238" stroke="none" rx="68"/><rect width="1013" height="230" x="4" y="4" fill="none" rx="64"/></g><text id="IKeyManager" fill="#4b4b4b" font-family="HelveticaNeue-Medium, Helvetica Neue" font-size="110" font-weight="500" transform="translate(991 1854)"><tspan x="0" y="0">IKeyManager</tspan></text><g id="Group_30" data-name="Group 30"><rect id="Rectangle_90" width="395" height="85" fill="#e3ddb8" data-name="Rectangle 90" transform="translate(870 1617)"/><text id="INTERFACE" fill="#fff" font-family="HelveticaNeue-Medium, Helvetica Neue" font-size="60" font-weight="500" transform="translate(898 1679)"><tspan x="0" y="0">INTERFACE</tspan></text></g><g id="Group_34" data-name="Group 34" transform="translate(-514 1110)"><rect id="Rectangle_90-2" width="279" height="85" fill="#c6d5b9" data-name="Rectangle 90" transform="translate(870 1617)"/><text id="PLUGIN" fill="#fff" font-family="HelveticaNeue-Medium, Helvetica Neue" font-size="60" font-weight="500" transform="translate(898 1679)"><tspan x="0" y="0">PLUGIN</tspan></text></g><g id="Group_40" data-name="Group 40" transform="translate(-514 2116)"><rect id="Rectangle_90-3" width="279" height="85" fill="#c6d5b9" data-name="Rectangle 90" transform="translate(870 1617)"/><text id="PLUGIN-2" fill="#fff" data-name="PLUGIN" font-family="HelveticaNeue-Medium, Helvetica Neue" font-size="60" font-weight="500" transform="translate(898 1679)"><tspan x="0" y="0">PLUGIN</tspan></text></g><g id="Group_35" data-name="Group 35" transform="translate(599 1110)"><rect id="Rectangle_90-4" width="279" height="85" fill="#c6d5b9" data-name="Rectangle 90" transform="translate(870 1617)"/><text id="PLUGIN-3" fill="#fff" data-name="PLUGIN" font-family="HelveticaNeue-Medium, Helvetica Neue" font-size="60" font-weight="500" transform="translate(898 1679)"><tspan x="0" y="0">PLUGIN</tspan></text></g><g id="Group_36" data-name="Group 36" transform="translate(1850 1110)"><rect id="Rectangle_90-5" width="279" height="85" fill="#c6d5b9" data-name="Rectangle 90" transform="translate(870 1617)"/><text id="PLUGIN-4" fill="#fff" data-name="PLUGIN" font-family="HelveticaNeue-Medium, Helvetica Neue" font-size="60" font-weight="500" transform="translate(898 1679)"><tspan x="0" y="0">PLUGIN</tspan></text></g><g id="Group_37" data-name="Group 37" transform="translate(2968 1110)"><rect id="Rectangle_90-6" width="279" height="85" fill="#c6d5b9" data-name="Rectangle 90" transform="translate(870 1617)"/><text id="PLUGIN-5" fill="#fff" data-name="PLUGIN" font-family="HelveticaNeue-Medium, Helvetica Neue" font-size="60" font-weight="500" transform="translate(898 1679)"><tspan x="0" y="0">PLUGIN</tspan></text></g><g id="Group_41" data-name="Group 41" transform="translate(2968 2132)"><rect id="Rectangle_90-7" width="279" height="85" fill="#c6d5b9" data-name="Rectangle 90" transform="translate(870 1617)"/><text id="PLUGIN-6" fill="#fff" data-name="PLUGIN" font-family="HelveticaNeue-Medium, Helvetica Neue" font-size="60" font-weight="500" transform="translate(898 1679)"><tspan x="0" y="0">PLUGIN</tspan></text></g><g id="Group_38" data-name="Group 38" transform="translate(4203 1110)"><rect id="Rectangle_90-8" width="279" height="85" fill="#c6d5b9" data-name="Rectangle 90" transform="translate(870 1617)"/><text id="PLUGIN-7" fill="#fff" data-name="PLUGIN" font-family="HelveticaNeue-Medium, Helvetica Neue" font-size="60" font-weight="500" transform="translate(898 1679)"><tspan x="0" y="0">PLUGIN</tspan></text></g><g id="Group_42" data-name="Group 42" transform="translate(4203 2134)"><rect id="Rectangle_90-9" width="279" height="85" fill="#c6d5b9" data-name="Rectangle 90" transform="translate(870 1617)"/><text id="PLUGIN-8" fill="#fff" data-name="PLUGIN" font-family="HelveticaNeue-Medium, Helvetica Neue" font-size="60" font-weight="500" transform="translate(898 1679)"><tspan x="0" y="0">PLUGIN</tspan></text></g><g id="Group_39" data-name="Group 39" transform="translate(5390 1110)"><rect id="Rectangle_90-10" width="279" height="85" fill="#c6d5b9" data-name="Rectangle 90" transform="translate(870 1617)"/><text id="PLUGIN-9" fill="#fff" data-name="PLUGIN" font-family="HelveticaNeue-Medium, Helvetica Neue" font-size="60" font-weight="500" transform="translate(898 1679)"><tspan x="0" y="0">PLUGIN</tspan></text></g><g id="Group_31" data-name="Group 31" transform="translate(1182)"><rect id="Rectangle_90-11" width="395" height="85" fill="#e3ddb8" data-name="Rectangle 90" transform="translate(870 1617)"/><text id="INTERFACE-2" fill="#fff" data-name="INTERFACE" font-family="HelveticaNeue-Medium, Helvetica Neue" font-size="60" font-weight="500" transform="translate(898 1679)"><tspan x="0" y="0">INTERFACE</tspan></text></g><g id="Group_32" data-name="Group 32" transform="translate(2345)"><rect id="Rectangle_90-12" width="395" height="85" fill="#e3ddb8" data-name="Rectangle 90" transform="translate(870 1617)"/><text id="INTERFACE-3" fill="#fff" data-name="INTERFACE" font-family="HelveticaNeue-Medium, Helvetica Neue" font-size="60" font-weight="500" transform="translate(898 1679)"><tspan x="0" y="0">INTERFACE</tspan></text></g><g id="Group_33" data-name="Group 33" transform="translate(3520)"><rect id="Rectangle_90-13" width="395" height="85" fill="#e3ddb8" data-name="Rectangle 90" transform="translate(870 1617)"/><text id="INTERFACE-4" fill="#fff" data-name="INTERFACE" font-family="HelveticaNeue-Medium, Helvetica Neue" font-size="60" font-weight="500" transform="translate(898 1679)"><tspan x="0" y="0">INTERFACE</tspan></text></g><text id="KMS" fill="#4b4b4b" font-family="HelveticaNeue-Medium, Helvetica Neue" font-size="110" font-weight="500" transform="translate(664 2973)"><tspan x="0" y="0">KMS</tspan></text><g id="Rectangle_70" fill="#fcf7d7" stroke="#e3ddb8" stroke-width="8" data-name="Rectangle 70" transform="translate(1978 1693)"><rect width="1021" height="238" stroke="none" rx="68"/><rect width="1013" height="230" x="4" y="4" fill="none" rx="64"/></g><g id="Rectangle_76" fill="#e2edd9" stroke="#c6d5b9" stroke-width="8" data-name="Rectangle 76" transform="translate(1406 2812)"><rect width="1021" height="238" stroke="none" rx="68"/><rect width="1013" height="230" x="4" y="4" fill="none" rx="64"/></g><text id="IDataStore" fill="#4b4b4b" font-family="HelveticaNeue-Medium, Helvetica Neue" font-size="110" font-weight="500" transform="translate(2229 1850)"><tspan x="0" y="0">IDataStore</tspan></text><text id="KeyStore" fill="#4b4b4b" font-family="HelveticaNeue-Medium, Helvetica Neue" font-size="110" font-weight="500" transform="translate(1657 2969)"><tspan x="0" y="0">KeyStore</tspan></text><g id="Rectangle_71" fill="#fcf7d7" stroke="#e3ddb8" stroke-width="8" data-name="Rectangle 71" transform="translate(3151 1693)"><rect width="1021" height="238" stroke="none" rx="68"/><rect width="1013" height="230" x="4" y="4" fill="none" rx="64"/></g><g id="Rectangle_77" fill="#e2edd9" stroke="#c6d5b9" stroke-width="8" data-name="Rectangle 77" transform="translate(2621 2812)"><rect width="1021" height="238" stroke="none" rx="68"/><rect width="1013" height="230" x="4" y="4" fill="none" rx="64"/></g><text id="IDIDManager" fill="#4b4b4b" font-family="HelveticaNeue-Medium, Helvetica Neue" font-size="110" font-weight="500" transform="translate(3327 1850)"><tspan x="0" y="0">IDIDManager</tspan></text><text id="DIDStore" fill="#4b4b4b" font-family="HelveticaNeue-Medium, Helvetica Neue" font-size="110" font-weight="500" transform="translate(2910 2973)"><tspan x="0" y="0">DIDStore</tspan></text><g id="Rectangle_72" fill="#fcf7d7" stroke="#e3ddb8" stroke-width="8" data-name="Rectangle 72" transform="translate(4324 1693)"><rect width="1021" height="238" stroke="none" rx="68"/><rect width="1013" height="230" x="4" y="4" fill="none" rx="64"/></g><g id="Rectangle_78" fill="#e2edd9" stroke="#c6d5b9" stroke-width="8" data-name="Rectangle 78" transform="translate(3742 2808)"><rect width="1021" height="238" stroke="none" rx="68"/><rect width="1013" height="230" x="4" y="4" fill="none" rx="64"/></g><text id="IResolver" fill="#4b4b4b" font-family="HelveticaNeue-Medium, Helvetica Neue" font-size="110" font-weight="500" transform="translate(4597 1850)"><tspan x="0" y="0">IResolver</tspan></text><text id="Providers" fill="#4b4b4b" font-family="HelveticaNeue-Medium, Helvetica Neue" font-size="110" font-weight="500" transform="translate(4017 2980)"><tspan x="0" y="0">Providers</tspan></text><g id="Rectangle_73" fill="#fcf7d7" stroke="#e3ddb8" stroke-width="8" data-name="Rectangle 73" transform="translate(5497 1693)"><rect width="1021" height="238" stroke="none" rx="68"/><rect width="1013" height="230" x="4" y="4" fill="none" rx="64"/></g><g id="Rectangle_79" fill="#e2edd9" stroke="#c6d5b9" stroke-width="8" data-name="Rectangle 79" transform="translate(4967 2812)"><rect width="1021" height="238" stroke="none" rx="68"/><rect width="1013" height="230" x="4" y="4" fill="none" rx="64"/></g><g id="Rectangle_80" fill="#e2edd9" stroke="#c6d5b9" stroke-width="8" data-name="Rectangle 80" transform="translate(6158 2812)"><rect width="1021" height="238" stroke="none" rx="68"/><rect width="1013" height="230" x="4" y="4" fill="none" rx="64"/></g><text id="ICredentialIssuer" fill="#4b4b4b" font-family="HelveticaNeue-Medium, Helvetica Neue" font-size="110" font-weight="500" transform="translate(5578 1854)"><tspan x="0" y="0">ICredentialIssuer</tspan></text><text id="Resolver" fill="#4b4b4b" font-family="HelveticaNeue-Medium, Helvetica Neue" font-size="110" font-weight="500" transform="translate(5255 2973)"><tspan x="0" y="0">Resolver</tspan></text><text id="JWT" fill="#4b4b4b" font-family="HelveticaNeue-Medium, Helvetica Neue" font-size="110" font-weight="500" transform="translate(6555 2973)"><tspan x="0" y="0">JWT</tspan></text><path id="Path_93" fill="none" stroke="#a8a8a8" stroke-dasharray="26" stroke-width="7" d="M-8664,1346.813s-1555.239,115.335-2304.723,1072.767" data-name="Path 93" transform="translate(12297 -760)"/><path id="Path_94" fill="none" stroke="#a8a8a8" stroke-dasharray="26" stroke-width="7" d="M-10968.723,1346.813S-9413.483,1462.147-8664,2419.58" data-name="Path 94" transform="translate(14601.723 -760)"/><path id="Path_95" fill="none" stroke="#a8a8a8" stroke-dasharray="26" stroke-width="7" d="M-8664,1346.813s-1048.6,274.906-1125.93,1080.33" data-name="Path 95" transform="translate(12297 -760)"/><path id="Path_96" fill="none" stroke="#a8a8a8" stroke-dasharray="26" stroke-width="7" d="M-9789.93,1346.813s1094.849,275.012,1172.177,1080.435" data-name="Path 96" transform="translate(13422.93 -760)"/><path id="Path_97" fill="none" stroke="#a8a8a8" stroke-dasharray="26" stroke-width="7" d="M-8664,1346.813V2439.058" data-name="Path 97" transform="translate(12297 -760)"/><path id="Path_98" fill="none" stroke="#707070" stroke-dasharray="26" stroke-width="7" d="M-10978.018-4565s-132.254,237.811-479.465,839.2" data-name="Path 98" transform="translate(12243.482 6513.401)"/><path id="Path_103" fill="none" stroke="#707070" stroke-dasharray="26" stroke-width="7" d="M-10978.018-4565s294.612,396.69,599.1,839.914" data-name="Path 103" transform="translate(15839.921 6513.401)"/><path id="Path_112" fill="none" stroke="#707070" stroke-dasharray="26" stroke-width="7" d="M-10978.018-4565s294.612,396.69,599.1,839.914" data-name="Path 112" transform="translate(17047.416 6512.685)"/><path id="Path_101" fill="none" stroke="#707070" stroke-dasharray="26" stroke-width="7" d="M-10978.018-4565s-139.5,234.958-479.465,823.787" data-name="Path 101" transform="translate(14608.482 6528.813)"/><path id="Path_100" fill="none" stroke="#707070" stroke-dasharray="26" stroke-width="7" d="M-10978.018-4565s-6.784,1248.323,0,1885.413" data-name="Path 100" transform="translate(13519.088 6515.587)"/><path id="Path_106" fill="none" stroke="#707070" stroke-dasharray="26" stroke-width="7" d="M-10978.018-4565s-6.784,277.417,0,419" data-name="Path 106" transform="translate(13519.088 8639)"/><path id="Path_107" fill="none" stroke="#707070" stroke-dasharray="26" stroke-width="7" d="M-10978.018-4565s-6.784,501.205,0,757" data-name="Path 107" transform="translate(11763.018 7626)"/><path id="Path_110" fill="none" stroke="#707070" stroke-dasharray="26" stroke-width="7" d="M-10978.018-4565s-6.784,501.205,0,757" data-name="Path 110" transform="translate(15232.518 7626)"/><path id="Path_111" fill="none" stroke="#707070" stroke-dasharray="26" stroke-width="7" d="M-10978.018-4565s-6.784,501.205,0,757" data-name="Path 111" transform="translate(16476.525 7626)"/><path id="Path_108" fill="none" stroke="#707070" stroke-dasharray="26" stroke-width="7" d="M-10964.285-4591.2s124.2,185.04,541.215,790.04" data-name="Path 108" transform="translate(12870.533 7641)"/><path id="Path_109" fill="none" stroke="#707070" stroke-dasharray="26" stroke-width="7" d="M-11011.741-4563.762s-89.294,133.959-443.787,742.661" data-name="Path 109" transform="translate(14151.883 7641)"/><g id="Rectangle_85" fill="#f2f5fc" stroke="#afb3be" stroke-dasharray="23" stroke-width="5" data-name="Rectangle 85" transform="translate(2028 3836)"><rect width="1021" height="238" stroke="none" rx="68"/><rect width="1016" height="233" x="2.5" y="2.5" fill="none" rx="65.5"/></g><text id="DBConnection" fill="#4b4b4b" font-family="HelveticaNeue-Medium, Helvetica Neue" font-size="110" font-weight="500" transform="translate(2168 4000)"><tspan x="0" y="0">DBConnection</tspan></text><path id="Path_104" fill="none" stroke="#707070" stroke-dasharray="26" stroke-width="7" d="M-11458.631-4565s126.418,227.7,479.465,839.2" data-name="Path 104" transform="translate(15158.15 6528.813)"/><path id="Path_105" fill="none" stroke="#707070" stroke-dasharray="26" stroke-width="7" d="M-11457.482-4565s140.479,216.827,505.385,848.862" data-name="Path 105" transform="translate(12722.947 6513.401)"/><g id="Rectangle_84" fill="#e2edd9" stroke="#c6d5b9" stroke-width="8" data-name="Rectangle 84" transform="translate(3784 3833)"><rect width="1021" height="238" stroke="none" rx="68"/><rect width="1013" height="230" x="4" y="4" fill="none" rx="64"/></g><text id="WebDIDProvider" fill="#4b4b4b" font-family="HelveticaNeue-Medium, Helvetica Neue" font-size="110" font-weight="500" transform="translate(3891 3994)"><tspan x="0" y="0">WebDIDProvider</tspan></text><g id="Rectangle_83" fill="#e2edd9" stroke="#c6d5b9" stroke-width="8" data-name="Rectangle 83" transform="translate(4996 3835)"><rect width="1021" height="238" stroke="none" rx="68"/><rect width="1013" height="230" x="4" y="4" fill="none" rx="64"/></g><text id="WebDIDResolver" fill="#4b4b4b" font-family="HelveticaNeue-Medium, Helvetica Neue" font-size="110" font-weight="500" transform="translate(5094 3992)"><tspan x="0" y="0">WebDIDResolver</tspan></text><g id="Rectangle_87" fill="#f2f5fc" stroke="#afb3be" stroke-dasharray="23" stroke-width="5" data-name="Rectangle 87" transform="translate(2031 4493)"><rect width="1021" height="238" stroke="none" rx="68"/><rect width="1016" height="233" x="2.5" y="2.5" fill="none" rx="65.5"/></g><text id="Postgres" fill="#4b4b4b" font-family="HelveticaNeue-Medium, Helvetica Neue" font-size="110" font-weight="500" transform="translate(2315 4654)"><tspan x="0" y="0">Postgres</tspan></text><g id="Rectangle_86" fill="#e2edd9" stroke="#c6d5b9" stroke-width="8" data-name="Rectangle 86" transform="translate(280 3818)"><rect width="1021" height="238" stroke="none" rx="68"/><rect width="1013" height="230" x="4" y="4" fill="none" rx="64"/></g><text id="Local" fill="#4b4b4b" font-family="HelveticaNeue-Medium, Helvetica Neue" font-size="110" font-weight="500" transform="translate(669 3979)"><tspan x="0" y="0">Local</tspan></text></g></svg>