<svg xmlns="http://www.w3.org/2000/svg" width="602.809" height="577.983" viewBox="0 0 602.809 577.983"><g id="Group_22" data-name="Group 22" transform="translate(-512.121 -3796.508)"><path id="Path_65" fill="none" stroke="#e4f0eb" stroke-width="3" d="M25.455,0H73.382L99.955,47.81,73.937,94.761H26.01L0,47.81Z" data-name="Path 65" opacity=".098" transform="translate(601.209 4278.23)"/><path id="Path_78" fill="none" stroke="#a37aa2" stroke-width="3" d="M25.455,0H73.382L99.955,47.81,73.937,94.761H26.01L0,47.81Z" data-name="Path 78" opacity=".086" transform="translate(850.064 4224)"/><path id="Path_72" fill="none" stroke="#a37aa2" stroke-width="3" d="M25.455,0H73.382L99.955,47.81,73.937,94.761H26.01L0,47.81Z" data-name="Path 72" opacity=".086" transform="translate(764.259 4171.947)"/><path id="Path_79" fill="none" stroke="#a37aa2" stroke-width="3" d="M25.455,0H73.382L99.955,47.81,73.937,94.761H26.01L0,47.81Z" data-name="Path 79" opacity=".086" transform="translate(1013.259 4118.947)"/><path id="Path_70" fill="none" stroke="#e4f0eb" stroke-width="3" d="M25.455,0H73.382L99.955,47.81,73.937,94.761H26.01L0,47.81Z" data-name="Path 70" opacity=".098" transform="translate(680.803 4223)"/><path id="Path_80" fill="none" stroke="#a37aa2" stroke-width="3" d="M25.455,0H73.382L99.955,47.81,73.937,94.761H26.01L0,47.81Z" data-name="Path 80" opacity=".086" transform="translate(931.803 4171)"/><path id="Path_71" fill="none" stroke="#e4f0eb" stroke-width="3" d="M25.455,0H73.382L99.955,47.81,73.937,94.761H26.01L0,47.81Z" data-name="Path 71" opacity=".098" transform="translate(597.064 4068.008)"/><path id="Path_82" fill="none" stroke="#a37aa2" stroke-width="3" d="M25.455,0H73.382L99.955,47.81,73.937,94.761H26.01L0,47.81Z" data-name="Path 82" opacity=".086" transform="translate(847.064 4011.008)"/><path id="Path_74" fill="none" stroke="#e4f0eb" stroke-width="3" d="M25.455,0H73.382L99.955,47.81,73.937,94.761H26.01L0,47.81Z" data-name="Path 74" opacity=".048" transform="translate(679.828 4120.011)"/><path id="Path_83" fill="none" stroke="#a37aa2" stroke-width="3" d="M25.455,0H73.382L99.955,47.81,73.937,94.761H26.01L0,47.81Z" data-name="Path 83" opacity=".086" transform="translate(930.828 4065.011)"/><path id="Path_75" fill="none" stroke="#e4f0eb" stroke-width="3" d="M25.455,0H73.382L99.955,47.81,73.937,94.761H26.01L0,47.81Z" data-name="Path 75" opacity=".098" transform="translate(513.828 4120.011)"/><path id="Path_84" fill="none" stroke="#a37aa2" stroke-width="3" d="M25.455,0H73.382L99.955,47.81,73.937,94.761H26.01L0,47.81Z" data-name="Path 84" opacity=".086" transform="translate(761.828 4065.011)"/><path id="Path_67" fill="none" stroke="#e4f0eb" stroke-width="3" d="M25.455,0H73.382L99.955,47.81,73.937,94.761H26.01L0,47.81Z" data-name="Path 67" opacity=".098" transform="translate(597.064 4172.732)"/><path id="Path_81" fill="none" stroke="#a37aa2" stroke-width="3" d="M25.455,0H73.382L99.955,47.81,73.937,94.761H26.01L0,47.81Z" data-name="Path 81" opacity=".086" transform="translate(847.064 4117.732)"/><path id="Path_85" fill="none" stroke="#939393" stroke-width="3" d="M25.455,0H73.382L99.955,47.81,73.937,94.761H26.01L0,47.81Z" data-name="Path 85" opacity=".041" transform="translate(678.209 4010.23)"/><path id="Path_86" fill="none" stroke="#939393" stroke-width="3" d="M25.455,0H73.382L99.955,47.81,73.937,94.761H26.01L0,47.81Z" data-name="Path 86" opacity=".041" transform="translate(842.259 3905.947)"/><path id="Path_87" fill="none" stroke="#939393" stroke-width="3" d="M25.455,0H73.382L99.955,47.81,73.937,94.761H26.01L0,47.81Z" data-name="Path 87" opacity=".041" transform="translate(1013.259 4010.23)"/><path id="Path_88" fill="none" stroke="#939393" stroke-width="3" d="M25.455,0H73.382L99.955,47.81,73.937,94.761H26.01L0,47.81Z" data-name="Path 88" opacity=".041" transform="translate(673.064 3798.008)"/><path id="Path_89" fill="none" stroke="#939393" stroke-width="3" d="M25.455,0H73.382L99.955,47.81,73.937,94.761H26.01L0,47.81Z" data-name="Path 89" opacity=".041" transform="translate(757.828 3854.011)"/><path id="Path_92" fill="none" stroke="#939393" stroke-width="3" d="M25.455,0H73.382L99.955,47.81,73.937,94.761H26.01L0,47.81Z" data-name="Path 92" opacity=".041" transform="translate(765.259 4274.223)"/><path id="Path_90" fill="none" stroke="#939393" stroke-width="3" d="M25.455,0H73.382L99.955,47.81,73.937,94.761H26.01L0,47.81Z" data-name="Path 90" opacity=".041" transform="translate(590.828 3852.011)"/><path id="Path_91" fill="none" stroke="#939393" stroke-width="3" d="M25.455,0H73.382L99.955,47.81,73.937,94.761H26.01L0,47.81Z" data-name="Path 91" opacity=".041" transform="translate(674.064 3905.732)"/></g></svg>