<svg xmlns="http://www.w3.org/2000/svg" width="460" height="370" viewBox="0 0 460 370"><g id="Group_23" data-name="Group 23" transform="translate(-628 -3359)"><rect id="Rectangle_59" width="460" height="370" fill="none" data-name="Rectangle 59" transform="translate(628 3359)"/><path id="Path_65" fill="none" stroke="#454545" stroke-linecap="round" stroke-linejoin="round" stroke-width="7" d="M25.455,0H73.382L99.955,47.81,73.937,94.761H26.01L0,47.81Z" data-name="Path 65" transform="translate(778.209 3599.231)"/><path id="Path_72" fill="none" stroke="#ebebeb" stroke-linecap="round" stroke-linejoin="round" stroke-width="7" d="M25.455,0H73.382L99.955,47.81,73.937,94.761H26.01L0,47.81Z" data-name="Path 72" transform="translate(941.259 3492.947)"/><path id="Path_70" fill="none" stroke="#454545" stroke-linecap="round" stroke-linejoin="round" stroke-width="7" d="M25.455,0H73.382L99.955,47.81,73.937,94.761H26.01L0,47.81Z" data-name="Path 70" transform="translate(857.803 3544)"/><path id="Path_71" fill="none" stroke="#454545" stroke-linecap="round" stroke-linejoin="round" stroke-width="7" d="M25.455,0H73.382L99.955,47.81,73.937,94.761H26.01L0,47.81Z" data-name="Path 71" transform="translate(774.064 3389.008)"/><path id="Path_74" fill="none" stroke="#454545" stroke-linecap="round" stroke-linejoin="round" stroke-width="7" d="M25.455,0H73.382L99.955,47.81,73.937,94.761H26.01L0,47.81Z" data-name="Path 74" transform="translate(856.828 3441.011)"/><path id="Path_75" fill="none" stroke="#454545" stroke-linecap="round" stroke-linejoin="round" stroke-width="7" d="M25.455,0H73.382L99.955,47.81,73.937,94.761H26.01L0,47.81Z" data-name="Path 75" transform="translate(690.828 3441.011)"/><path id="Path_67" fill="none" stroke="#ebebeb" stroke-linecap="round" stroke-linejoin="round" stroke-width="7" d="M25.455,0H73.382L99.955,47.81,73.937,94.761H26.01L0,47.81Z" data-name="Path 67" transform="translate(774.064 3493.732)"/></g></svg>