<svg xmlns="http://www.w3.org/2000/svg" width="460" height="370" viewBox="0 0 460 370"><g id="Group_65" data-name="Group 65" transform="translate(-1349 -2095)"><rect id="Rectangle_59" width="460" height="370" fill="none" data-name="Rectangle 59" transform="translate(1349 2095)"/><path id="Path_65" fill="none" stroke="#454545" stroke-linecap="round" stroke-linejoin="round" stroke-width="7" d="M25.455,0H73.382L99.955,47.81,73.937,94.761H26.01L0,47.81Z" data-name="Path 65" transform="translate(1499.209 2331.231)"/><path id="Path_72" fill="none" stroke="#454545" stroke-linecap="round" stroke-linejoin="round" stroke-width="7" d="M25.455,0H73.382L99.955,47.81,73.937,94.761H26.01L0,47.81Z" data-name="Path 72" transform="translate(1662.259 2224.947)"/><path id="Path_70" fill="none" stroke="#d8d8d8" stroke-linecap="round" stroke-linejoin="round" stroke-width="7" d="M25.455,0H73.382L99.955,47.81,73.937,94.761H26.01L0,47.81Z" data-name="Path 70" transform="translate(1578.803 2276)"/><path id="Path_71" fill="none" stroke="#454545" stroke-linecap="round" stroke-linejoin="round" stroke-width="7" d="M25.455,0H73.382L99.955,47.81,73.937,94.761H26.01L0,47.81Z" data-name="Path 71" transform="translate(1411.828 2279.85)"/><path id="Path_74" fill="none" stroke="#454545" stroke-linecap="round" stroke-linejoin="round" stroke-width="7" d="M25.455,0H73.382L99.955,47.81,73.937,94.761H26.01L0,47.81Z" data-name="Path 74" transform="translate(1577.828 2173.011)"/><path id="Path_75" fill="none" stroke="#d8d8d8" stroke-linecap="round" stroke-linejoin="round" stroke-width="7" d="M25.455,0H73.382L99.955,47.81,73.937,94.761H26.01L0,47.81Z" data-name="Path 75" transform="translate(1411.828 2173.011)"/><path id="Path_67" fill="none" stroke="#454545" stroke-linecap="round" stroke-linejoin="round" stroke-width="7" d="M25.455,0H73.382L99.955,47.81,73.937,94.761H26.01L0,47.81Z" data-name="Path 67" transform="translate(1495.064 2225.732)"/><text id="SSI" fill="#73c394" font-family="HelveticaNeue-Medium, Helvetica Neue" font-size="36" font-weight="500" transform="translate(1517 2286)"><tspan x="0" y="0">SSI</tspan></text></g></svg>